<svg xmlns="http://www.w3.org/2000/svg" width="640" height="520" viewBox="0 0 640 520" fill="none" aria-hidden="true">
  <circle cx="420" cy="240" r="180" fill="#eb4d5a" opacity="0.08"/>
  <circle cx="200" cy="360" r="120" fill="#eb4d5a" opacity="0.05"/>

  <rect x="210" y="70" width="280" height="340" rx="16" fill="#2a2a2a" stroke="#ffffff" stroke-opacity="0.35" stroke-width="1.5"/>
  <rect x="238" y="108" width="120" height="14" rx="7" fill="#ffffff" fill-opacity="0.2"/>
  <rect x="238" y="140" width="180" height="10" rx="5" fill="#ffffff" fill-opacity="0.12"/>
  <text x="238" y="220" fill="#eb4d5a" font-family="Arial, Helvetica, sans-serif" font-size="48" font-weight="700">Rs 9999</text>
  <rect x="238" y="250" width="90" height="10" rx="5" fill="#ffffff" fill-opacity="0.15"/>
  <rect x="238" y="280" width="160" height="8" rx="4" fill="#ffffff" fill-opacity="0.1"/>
  <rect x="238" y="302" width="140" height="8" rx="4" fill="#ffffff" fill-opacity="0.1"/>
  <rect x="238" y="324" width="150" height="8" rx="4" fill="#ffffff" fill-opacity="0.1"/>
  <rect x="238" y="360" width="120" height="28" rx="14" fill="#eb4d5a"/>

  <rect x="120" y="110" width="260" height="320" rx="16" fill="#1f1f1f" stroke="#eb4d5a" stroke-width="2"/>
  <rect x="148" y="132" width="88" height="22" rx="4" fill="#eb4d5a"/>
  <text x="160" y="148" fill="#ffffff" font-family="Arial, Helvetica, sans-serif" font-size="11" font-weight="700">BEST VALUE</text>
  <rect x="148" y="176" width="110" height="12" rx="6" fill="#ffffff" fill-opacity="0.25"/>
  <rect x="148" y="202" width="160" height="9" rx="4" fill="#ffffff" fill-opacity="0.12"/>
  <text x="148" y="278" fill="#eb4d5a" font-family="Arial, Helvetica, sans-serif" font-size="52" font-weight="700">Rs 399</text>
  <rect x="148" y="304" width="70" height="9" rx="4" fill="#ffffff" fill-opacity="0.18"/>
  <rect x="148" y="332" width="150" height="8" rx="4" fill="#ffffff" fill-opacity="0.1"/>
  <rect x="148" y="354" width="130" height="8" rx="4" fill="#ffffff" fill-opacity="0.1"/>
  <rect x="148" y="376" width="140" height="8" rx="4" fill="#ffffff" fill-opacity="0.1"/>
  <rect x="148" y="410" width="110" height="26" rx="13" fill="#eb4d5a"/>

  <rect x="40" y="180" width="200" height="240" rx="14" fill="#2c2c2c" stroke="#ffffff" stroke-opacity="0.4" stroke-width="1.5"/>
  <rect x="64" y="210" width="90" height="12" rx="6" fill="#ffffff" fill-opacity="0.22"/>
  <rect x="64" y="236" width="130" height="8" rx="4" fill="#ffffff" fill-opacity="0.12"/>
  <text x="64" y="300" fill="#eb4d5a" font-family="Arial, Helvetica, sans-serif" font-size="44" font-weight="700">Rs 99</text>
  <rect x="64" y="324" width="60" height="8" rx="4" fill="#ffffff" fill-opacity="0.16"/>
  <rect x="64" y="352" width="120" height="7" rx="3" fill="#ffffff" fill-opacity="0.1"/>
  <rect x="64" y="372" width="100" height="7" rx="3" fill="#ffffff" fill-opacity="0.1"/>
  <rect x="64" y="392" width="110" height="7" rx="3" fill="#ffffff" fill-opacity="0.1"/>

  <g transform="translate(430 90)">
    <rect width="140" height="56" rx="10" fill="#1a1a1a" stroke="#eb4d5a" stroke-width="1.5"/>
    <text x="18" y="24" fill="#ffffff" font-family="Arial, Helvetica, sans-serif" font-size="11" opacity="0.7">STARTING AT</text>
    <text x="18" y="44" fill="#eb4d5a" font-family="Arial, Helvetica, sans-serif" font-size="20" font-weight="700">Rs 99/-</text>
  </g>
</svg>
